<?xml version="1.0" encoding="iso-8859-1"?>
<!-- Generator: Adobe Illustrator 21.1.0, SVG Export Plug-In . SVG Version: 6.00 Build 0)  -->
<svg version="1.1" id="Capa_1" xmlns="http://www.w3.org/2000/svg" xmlns:xlink="http://www.w3.org/1999/xlink" x="0px" y="0px"
	 viewBox="0 0 396 152" style="enable-background:new 0 0 396 152;" xml:space="preserve">
<g>
	<polygon style="fill:none;" points="48.364,94.909 102.724,94.909 75.544,33.169 	"/>
	<path d="M66.724,14.81l-57.06,126h18.54l13.86-31.5h66.96l13.86,31.5h18.9l-57.24-126H66.724z M48.364,94.909l27.18-61.74
		l27.18,61.74H48.364z"/>
	<polygon points="160.502,140.81 178.502,140.81 178.502,89.869 241.683,89.869 241.683,74.39 178.502,74.39 178.502,30.47 
		249.423,30.47 249.423,14.81 160.502,14.81 	"/>
	<polygon points="365.161,14.81 365.161,108.77 289.562,14.81 274.802,14.81 274.802,140.81 292.802,140.81 292.802,46.85 
		368.401,140.81 383.161,140.81 383.161,14.81 	"/>
</g>
</svg>
