<?xml version="1.0" encoding="iso-8859-1"?>
<!-- Generator: Adobe Illustrator 21.1.0, SVG Export Plug-In . SVG Version: 6.00 Build 0)  -->
<svg version="1.1" id="Capa_1" xmlns="http://www.w3.org/2000/svg" xmlns:xlink="http://www.w3.org/1999/xlink" x="0px" y="0px"
	 viewBox="0 0 314 228" style="enable-background:new 0 0 314 228;" xml:space="preserve">
<g>
	<path d="M75.047,108.506c12.277-6.274,19.696-17.429,19.696-30.122c0-11.075-4.266-20.095-12.262-26.037
		c-8.979-7.265-21.059-10.501-39.175-10.501c-11.795,0-24.408,1.114-32.92,2.905c-1.041,0.22-1.784,1.136-1.784,2.201V182.27
		c0,1.122,0.835,2.074,1.942,2.228c4.478,0.621,14.046,1.659,27.861,1.659c23.128,0,39.182-4.403,49.124-13.495
		c8.166-7.933,12.311-17.747,12.311-29.165C99.845,124.667,87.445,113.363,75.047,108.506z M30.86,60.862
		c3.46-0.558,7.984-0.845,13.465-0.845c18.55,0,27.96,6.798,27.96,20.204c0,12.642-10.818,20.812-27.552,20.812H30.86V60.862z
		 M43.512,167.778c-5.599,0-9.696-0.166-12.652-0.513v-48.262h12.447c9.995,0,33.266,2.367,33.266,24.284
		C76.573,164.598,55.854,167.778,43.512,167.778z M205.956,167.785v14.895c0,1.242-1.005,2.251-2.251,2.251H103.286
		c-1.24,0-2.251-1.008-2.251-2.251v-10.409c0-0.451,0.136-0.895,0.393-1.268l74.345-108.739h-65.957
		c-1.24,0-2.251-1.005-2.251-2.246v-14.9c0-1.246,1.01-2.247,2.251-2.247h92.86c1.249,0,2.25,1.005,2.25,2.247v10.815
		c0,0.455-0.132,0.894-0.391,1.268l-73.937,108.334h73.105C204.95,165.535,205.956,166.539,205.956,167.785z M306.097,126.624
		c-1.648-4.448-4.128-8.219-7.398-11.214c-3.316-3.038-7.534-5.654-12.524-7.786c-4.444-1.895-9.679-3.765-15.5-5.575V59.163
		c9.78,2.38,15.132,8.8,15.906,19.209h0.031l0.075,1.168c0.173,4.847,4.117,8.638,8.979,8.638c5.193,0,9.152-3.858,9.205-8.975
		l-0.185-1.626c-1.313-21.29-12.471-33.082-34.007-35.891V18.558c0-4.832-3.929-8.759-8.754-8.759c-4.824,0-8.757,3.931-8.757,8.759
		v22.889c-3.846,0.467-7.478,1.294-10.811,2.578c-5.179,2-9.656,4.783-13.303,8.27c-3.635,3.479-6.454,7.637-8.381,12.366
		c-1.926,4.739-2.904,10.066-2.904,15.819c0,6.382,0.737,11.746,2.189,15.943c1.438,4.138,3.718,7.695,6.774,10.554
		c3.101,2.905,7.082,5.415,11.832,7.455c4.117,1.776,9.046,3.522,14.601,5.215v48.741c-12.554-2.724-19.177-11.037-19.689-24.86
		l-0.008-1.174c0-4.945-4.049-8.964-9.025-8.964c-5.275,0-9.144,3.775-9.2,8.979c1.298,26.55,13.739,40.973,37.921,43.999v23.075
		c0,4.832,3.929,8.757,8.753,8.757c4.825,0,8.757-3.933,8.757-8.757V186.48c4.173-0.534,8.087-1.487,11.632-2.954
		c5.532-2.299,10.304-5.445,14.203-9.359c3.887-3.907,6.906-8.55,8.976-13.804c2.065-5.25,3.119-11.015,3.119-17.115
		C308.592,136.716,307.756,131.124,306.097,126.624z M253.16,96.588c-0.926-0.308-1.81-0.605-2.608-0.879
		c-4.395-1.522-7.579-3.037-9.724-4.632c-2.246-1.665-3.65-3.537-4.18-5.571c-0.474-1.85-0.719-4.283-0.719-7.214
		c0-3.368,0.681-6.379,2.025-8.956c1.355-2.574,3.222-4.715,5.577-6.369c2.303-1.622,5.012-2.856,8.046-3.665
		c0.519-0.138,1.046-0.251,1.58-0.365v37.652C253.157,96.588,253.16,96.588,253.16,96.588z M283.702,162.987
		c-3.143,3.007-7.522,4.941-13.032,5.829v-43.427c0.888,0.316,1.78,0.625,2.578,0.911c4.478,1.618,8.008,3.293,10.503,4.974
		c2.612,1.769,4.406,3.824,5.328,6.104c0.896,2.202,1.351,4.915,1.351,8.068C290.427,152.823,288.165,158.724,283.702,162.987z"/>
</g>
</svg>
